<?xml version="1.0" standalone="no"?>
<!DOCTYPE svg PUBLIC "-//W3C//DTD SVG 20010904//EN"
 "http://www.w3.org/TR/2001/REC-SVG-20010904/DTD/svg10.dtd">
<svg version="1.0" xmlns="http://www.w3.org/2000/svg"
 width="600.000000pt" height="600.000000pt" viewBox="0 0 600.000000 600.000000"
 preserveAspectRatio="xMidYMid meet">
<metadata>
Created by potrace 1.11, written by Peter Selinger 2001-2013
</metadata>
<g transform="translate(0.000000,600.000000) scale(0.100000,-0.100000)"
fill="#000000" stroke="none">
<path d="M1743 5167 l-1243 -722 3 -1449 2 -1449 1245 -722 1245 -722 3 436 3
436 874 505 874 505 1 1017 0 1017 83 49 c45 26 209 122 365 212 155 90 282
166 282 170 0 8 -2461 1435 -2480 1437 -8 1 -574 -323 -1257 -720z m1257 -575
l0 -437 -500 -290 -500 -290 0 -581 0 -582 -367 -212 c-203 -117 -371 -215
-375 -217 -5 -2 -8 455 -8 1015 l0 1020 873 506 c479 278 873 506 875 506 1 0
2 -197 2 -438z m1000 -1595 l0 -583 -491 -284 c-270 -157 -495 -286 -500 -288
-5 -2 -9 238 -9 580 l0 583 493 287 c270 158 495 287 500 287 4 1 7 -261 7
-582z"/>
</g>
</svg>
